<?xml version="1.0" encoding="UTF-8" standalone="no"?>
<svg width="500px" height="500px" viewBox="0 0 500 500" version="1.1" xmlns="http://www.w3.org/2000/svg" xmlns:xlink="http://www.w3.org/1999/xlink">
    <!-- Generator: Sketch 50.2 (55047) - http://www.bohemiancoding.com/sketch -->
    <title>concourse_logo_b</title>
    <desc>Created with Sketch.</desc>
    <defs>
        <polygon id="path-1" points="0.06 0.447295076 459.404228 0.447295076 459.404228 455.644481 0.06 455.644481"></polygon>
    </defs>
    <g id="concourse_logo_b" stroke="none" stroke-width="1" fill="none" fill-rule="evenodd">
        <path d="M241.112093,259.65345 C242.5774,277.264963 258.042303,290.353328 275.65305,288.88804 C293.2658,287.422753 306.353338,271.958056 304.888031,254.346543 C303.423726,236.736032 287.957821,223.646665 270.347074,225.111952 C252.736328,226.57724 239.645783,242.041936 241.112093,259.65345" id="Fill-1" fill="#1B1B13"></path>
        <g id="Group-6" transform="translate(14.000000, 18.000000)">
            <mask id="mask-2" fill="white">
                <use xlink:href="#path-1"></use>
            </mask>
            <g id="Clip-3"></g>
            <path d="M299.128,269.855 C292.246,277.453 283.727,283.401 274.199,287.24 L274.125,287.454 C281.375,315.412 292.761,341.885 307.648,366.158 C300.667,369.852 292.337,373.395 283.127,375.956 C277.525,377.488 271.603,378.747 265.481,379.498 L263.396,379.764 L260.918,379.956 L255.951,380.336 C252.902,380.336 249.916,380.615 246.722,380.43 C240.377,380.357 234.043,379.608 227.817,378.611 C221.621,377.485 215.53,376.05 209.784,374.122 C203.991,372.31 198.552,370.017 193.493,367.6 C188.427,365.188 183.799,362.531 179.633,359.885 C175.502,357.196 171.766,354.584 168.65,352.022 C165.417,349.583 162.885,347.125 160.687,345.202 C156.485,341.17 154.169,338.733 154.169,338.733 C154.169,338.733 156.119,341.443 159.775,346.054 C161.703,348.268 163.924,351.099 166.844,354.001 C169.647,357.026 173.07,360.193 176.932,363.529 C180.829,366.823 185.232,370.219 190.16,373.451 C195.083,376.687 200.474,379.878 206.341,382.638 C212.162,385.513 218.452,387.945 224.989,390.075 C231.558,392.076 238.377,393.836 245.353,394.88 C248.787,395.548 252.501,395.768 256.087,396.209 L261.076,396.505 L263.556,396.65 L266.405,396.696 C273.418,396.792 280.349,396.295 287.031,395.414 C299.754,393.668 311.277,390.35 321.226,386.363 C325.411,392.055 329.809,397.587 334.405,402.965 C334.186,403.1 333.992,403.22 333.768,403.359 C332.111,404.384 330.276,405.519 328.277,406.756 L327.52,407.224 L327.329,407.342 L327.28,407.372 C326.358,407.832 328.485,406.779 328.247,406.896 L328.147,406.948 L327.74,407.154 C327.195,407.431 326.64,407.713 326.074,408 C324.943,408.575 323.772,409.17 322.562,409.785 L320.718,410.722 L319.775,411.201 L319.297,411.444 L319.178,411.505 L319.117,411.535 C318.951,411.606 320.352,411.029 319.73,411.286 L319.483,411.395 C318.162,411.975 316.804,412.572 315.409,413.184 C314.016,413.797 312.585,414.425 311.121,415.068 L310.571,415.31 L310.502,415.34 C311.453,415.003 310.726,415.263 310.918,415.194 L310.778,415.249 L310.496,415.36 L309.361,415.804 L307.05,416.706 C295.644,421.142 281.286,425.064 265.641,426.836 C257.803,427.688 249.605,428.105 241.261,427.802 L238.342,427.697 L235.045,427.437 L228.432,426.907 C224.33,426.258 220.229,425.975 216.021,425.054 C207.581,423.609 199.303,421.27 191.239,418.629 C183.24,415.823 175.458,412.633 168.242,408.869 C164.597,407.046 161.074,405.13 157.737,403.051 C154.302,401.118 151.146,398.916 148.031,396.81 C141.834,392.558 136.275,388.08 131.325,383.716 C126.43,379.303 122.049,375.08 118.474,371.053 C114.722,367.168 111.895,363.401 109.402,360.415 C106.977,357.379 105.298,354.821 104.043,353.152 C102.819,351.458 102.167,350.554 102.167,350.554 C102.167,350.554 102.724,351.518 103.766,353.326 C104.845,355.111 106.265,357.846 108.382,361.133 C110.566,364.369 113.032,368.461 116.41,372.762 C119.611,377.204 123.607,381.933 128.144,386.95 C132.737,391.917 137.971,397.097 143.919,402.142 C146.909,404.644 149.959,407.264 153.313,409.635 C156.569,412.152 160.035,414.526 163.649,416.824 C170.809,421.537 178.648,425.742 186.848,429.589 C195.11,433.273 203.728,436.68 212.657,439.174 C217.039,440.606 221.79,441.485 226.361,442.646 L232.902,443.848 L236.155,444.442 L239.788,444.962 C248.897,446.226 257.987,446.704 266.804,446.647 C284.495,446.44 300.835,443.782 314.792,439.945 L318.357,438.956 L319.999,438.433 C321.521,437.941 323.007,437.462 324.457,436.994 C325.906,436.526 327.317,436.071 328.689,435.628 C330.269,435.019 331.802,434.427 333.288,433.854 C334.555,433.366 335.781,432.893 336.963,432.436 C337.556,432.208 338.137,431.984 338.707,431.764 L339.132,431.599 L339.237,431.559 L340.355,431.006 L340.558,430.908 L341.357,430.519 C343.471,429.492 345.413,428.549 347.166,427.698 C350.181,426.233 352.6,425.058 354.424,424.172 C359.355,428.891 364.437,433.469 369.711,437.847 C369.711,437.847 394.833,463.717 408.671,453.077 C421.681,443.074 406.693,411.717 406.693,411.717 C386.689,354.622 349.161,304.894 299.128,269.855" id="Fill-2" fill="#1B1B13" mask="url(#mask-2)"></path>
            <path d="M211.492,227.337 L211.346,227.163 C183.894,219.048 155.596,215.168 127.373,215.349 C127.834,207.048 129.244,197.422 132.163,187.53 C133.832,181.966 135.902,176.276 138.509,170.686 L139.388,168.777 L140.537,166.574 L142.846,162.16 C144.461,159.574 145.806,156.893 147.656,154.282 C151.079,148.94 155.071,143.964 159.214,139.212 C163.451,134.554 167.896,130.148 172.575,126.295 C177.18,122.342 182.007,118.943 186.737,115.933 C191.467,112.914 196.172,110.397 200.623,108.265 C205.092,106.186 209.286,104.401 213.111,103.116 C216.891,101.666 220.319,100.821 223.114,99.975 C228.76,98.547 232.053,97.874 232.053,97.874 C232.053,97.874 228.722,98.093 222.873,98.751 C219.974,99.213 216.398,99.596 212.389,100.536 C208.338,101.31 203.839,102.536 198.963,104.044 C194.105,105.605 188.892,107.539 183.539,110.007 C178.188,112.468 172.625,115.35 167.176,118.864 C161.653,122.278 156.26,126.324 150.99,130.74 C145.813,135.25 140.706,140.103 136.126,145.465 C133.739,148.025 131.586,151.058 129.312,153.866 L126.418,157.94 L124.982,159.966 L123.432,162.359 C119.636,168.256 116.386,174.398 113.594,180.531 C108.051,192.878 104.639,205.052 102.811,216.054 L102.729,216.548 C95.8,217.184 88.898,218.075 82.025,219.207 C82.03,218.089 82.035,216.908 82.04,215.595 C82.049,213.646 82.059,211.488 82.069,209.138 L82.073,208.248 L82.073,207.967 C82.172,206.94 81.938,209.302 81.965,209.038 L82.015,208.471 C82.069,207.862 82.124,207.242 82.181,206.61 C82.291,205.347 82.408,204.038 82.527,202.686 C82.588,202.01 82.647,201.323 82.71,200.625 L82.803,199.571 L82.85,199.038 L82.861,198.904 L82.868,198.837 C82.895,198.659 82.643,200.152 82.755,199.488 L82.793,199.221 C83.001,197.794 83.214,196.326 83.434,194.819 C83.652,193.312 83.878,191.766 84.107,190.184 L84.194,189.589 L84.205,189.514 C83.987,190.499 84.152,189.744 84.107,189.945 L84.135,189.797 L84.191,189.499 L84.416,188.3 L84.875,185.863 C87.156,173.838 91.435,159.583 98.221,145.376 C101.651,138.276 105.64,131.103 110.318,124.186 L111.954,121.765 L113.921,119.108 L117.873,113.78 C120.596,110.644 123.01,107.316 126.021,104.234 C131.718,97.842 138.086,92.06 144.598,86.62 C151.215,81.322 158.043,76.412 165.06,72.286 C168.537,70.16 172.028,68.187 175.559,66.458 C179.019,64.569 182.558,63.058 185.994,61.532 C192.883,58.529 199.628,56.186 205.95,54.3 C212.286,52.487 218.188,51.007 223.498,50.109 C228.781,48.985 233.473,48.583 237.327,48.05 C241.187,47.602 244.244,47.534 246.325,47.353 C248.41,47.214 249.523,47.139 249.523,47.139 C249.523,47.139 248.41,47.1 246.325,47.027 C244.239,46.996 241.167,46.751 237.259,46.804 C233.357,46.943 228.58,46.867 223.142,47.454 C217.678,47.815 211.552,48.698 204.892,49.889 C198.247,51.153 191.08,52.849 183.65,55.22 C179.945,56.431 176.106,57.63 172.318,59.218 C168.459,60.646 164.609,62.327 160.746,64.177 C152.956,67.751 145.236,72.173 137.63,77.088 C130.127,82.146 122.673,87.65 115.826,93.901 C112.291,96.858 109.028,100.422 105.622,103.686 L101.138,108.595 L98.91,111.04 L96.546,113.845 C90.646,120.901 85.425,128.358 80.803,135.866 C71.605,150.981 65.204,166.247 61.064,180.118 L60.36,182.496 L60.014,183.666 L59.589,185.335 C59.199,186.886 58.818,188.401 58.447,189.878 C58.075,191.355 57.714,192.794 57.362,194.193 C57.043,195.854 56.731,197.468 56.431,199.032 C56.174,200.365 55.926,201.655 55.687,202.901 C55.566,203.523 55.448,204.135 55.334,204.735 L55.247,205.183 L55.226,205.294 L55.103,206.534 L55.078,206.758 L54.985,207.643 C54.735,209.98 54.507,212.125 54.3,214.064 C53.672,219.954 53.251,223.912 53.084,225.481 C46.402,227.296 39.767,229.322 33.204,231.62 C33.204,231.62 -1.91,239.827 0.082,257.168 C1.954,273.472 36.551,276.78 36.551,276.78 C95.791,289.043 157.747,282.493 213.552,257.659 C210.583,247.847 209.873,237.481 211.492,227.337" id="Fill-4" fill="#1B1B13" mask="url(#mask-2)"></path>
            <path d="M458.772,208.498 C457.918,199.491 456.65,190.311 454.434,181.309 C453.529,176.79 451.958,172.22 450.722,167.668 L448.555,161.381 L447.473,158.256 L446.141,154.837 C442.766,146.283 438.714,138.131 434.33,130.48 C425.455,115.174 415.111,102.251 404.909,91.981 L402.295,89.362 L401.032,88.19 C399.857,87.106 398.709,86.047 397.589,85.015 C396.469,83.982 395.379,82.977 394.319,81.999 C393.012,80.923 391.743,79.878 390.514,78.866 C389.467,78.003 388.452,77.168 387.472,76.362 L385.679,74.885 L385.591,74.813 L384.561,74.112 L384.375,73.983 L383.644,73.477 C381.71,72.141 379.936,70.914 378.332,69.806 C375.305,67.713 372.915,66.061 371.21,64.882 C373.048,57.563 374.606,50.159 375.875,42.686 C375.875,42.686 385.678,7.983 369.537,1.338 C354.363,-4.911 334.732,23.769 334.732,23.769 C295.342,69.686 271.104,127.078 265.844,187.933 C275.867,190.082 285.283,194.475 293.379,200.798 L293.601,200.755 C313.471,181.159 330.209,158.916 343.542,134.845 C350.414,139.171 357.902,144.852 364.937,151.891 C369.025,156.018 373.033,160.557 376.695,165.52 L377.951,167.205 L379.336,169.268 L382.107,173.407 C383.607,176.062 385.318,178.526 386.727,181.399 C389.78,186.96 392.242,192.845 394.434,198.758 C396.498,204.706 398.241,210.716 399.386,216.668 C400.655,222.604 401.331,228.469 401.714,234.062 C402.102,239.659 402.063,244.995 401.806,249.924 C401.494,254.843 401.056,259.381 400.356,263.354 C399.82,267.368 398.924,270.781 398.33,273.641 C396.883,279.282 395.899,282.496 395.899,282.496 C395.899,282.496 397.301,279.466 399.52,274.015 C400.501,271.248 401.874,267.923 402.967,263.954 C404.224,260.026 405.3,255.488 406.307,250.485 C407.26,245.472 408.054,239.969 408.447,234.088 C408.845,228.211 408.974,221.947 408.495,215.481 C408.138,208.999 407.164,202.326 405.806,195.586 C404.322,188.882 402.502,182.077 399.983,175.49 C398.878,172.17 397.243,168.827 395.865,165.487 L393.671,160.998 L392.578,158.767 L391.219,156.262 C387.855,150.108 384.015,144.316 379.965,138.93 C371.945,128.385 363.097,119.742 354.488,112.939 C357.444,106.342 360.158,99.636 362.617,92.829 C362.987,93.032 363.331,93.222 363.72,93.436 C365.428,94.375 367.319,95.416 369.377,96.548 L370.156,96.977 L370.355,97.086 L370.405,97.113 C371.258,97.691 369.296,96.356 369.514,96.505 L369.609,96.568 L369.989,96.821 L371.544,97.855 C372.6,98.557 373.694,99.285 374.824,100.037 L376.546,101.183 L377.428,101.768 L377.873,102.065 L377.985,102.139 L378.042,102.177 C378.185,102.286 376.994,101.351 377.523,101.766 L377.74,101.928 C378.894,102.793 380.082,103.682 381.299,104.595 C382.518,105.508 383.769,106.445 385.049,107.404 L385.529,107.764 L385.59,107.81 C384.829,107.147 385.413,107.653 385.257,107.518 L385.375,107.613 L386.554,108.576 L388.476,110.144 C397.945,117.899 408.417,128.475 417.649,141.229 C422.243,147.638 426.635,154.571 430.473,161.987 L431.816,164.581 L433.209,167.58 L435.999,173.599 C437.449,177.491 439.218,181.202 440.483,185.32 C443.374,193.38 445.405,201.738 447.068,210.059 C448.556,218.405 449.602,226.75 449.87,234.885 C450.074,238.955 450.136,242.965 449.966,246.893 C449.971,250.834 449.605,254.666 449.302,258.413 C448.644,265.9 447.476,272.943 446.108,279.397 C444.671,285.829 443.147,291.721 441.396,296.813 C439.857,301.991 437.966,306.303 436.591,309.942 C435.138,313.547 433.735,316.265 432.9,318.179 C432.024,320.077 431.558,321.089 431.558,321.089 C431.558,321.089 432.125,320.131 433.186,318.334 C434.211,316.517 435.895,313.936 437.718,310.478 C439.461,306.985 441.813,302.826 443.898,297.77 C446.194,292.799 448.349,286.996 450.488,280.578 C452.556,274.137 454.495,267.033 455.965,259.374 C456.675,255.54 457.458,251.595 457.875,247.51 C458.467,243.437 458.831,239.252 459.055,234.975 C459.641,226.424 459.451,217.529 458.772,208.498" id="Fill-5" fill="#1B1B13" mask="url(#mask-2)"></path>
        </g>
    </g>
</svg>