<?xml version="1.0" encoding="UTF-8" standalone="no"?>
<svg width="500px" height="500px" viewBox="0 0 500 500" version="1.1" xmlns="http://www.w3.org/2000/svg" xmlns:xlink="http://www.w3.org/1999/xlink">
    <!-- Generator: Sketch 50.2 (55047) - http://www.bohemiancoding.com/sketch -->
    <title>concourse_logo_blue_square</title>
    <desc>Created with Sketch.</desc>
    <defs></defs>
    <g id="concourse_logo_blue_square" stroke="none" stroke-width="1" fill="none" fill-rule="evenodd">
        <g id="Concourse_logo_white">
            <rect id="Rectangle-3" fill="#3398DC" x="0" y="0" width="500" height="500"></rect>
            <g id="concourse_logo_sm_b" transform="translate(90.909091, 102.272727)" fill="#FFFFFF" fill-rule="nonzero">
                <ellipse id="Oval" cx="163.690476" cy="148.529412" rx="19.3452381" ry="19.1176471"></ellipse>
                <path d="M188.162603,164.772727 C183.761968,169.707442 178.383413,173.531845 172.271418,175.999202 L172.271418,176.12257 C176.916534,194.01091 184.128687,211.035675 193.663398,226.826761 C185.228846,231.268004 176.183095,234.228832 166.770623,235.462511 L165.425985,235.585879 L163.836866,235.709247 L160.658629,235.955982 C158.702791,235.955982 156.746953,236.07935 154.791114,235.955982 C146.723282,235.832614 138.777689,234.475568 131.198816,231.884843 C127.65386,230.774532 124.108903,229.294118 120.808426,227.690336 C117.752429,226.209921 114.818671,224.606139 112.007154,222.755621 C109.562356,221.151839 107.239799,219.548057 105.039481,217.697539 C102.961402,216.093757 101.372284,214.489975 99.9054053,213.256296 C97.2161278,210.665571 95.7492492,209.061789 95.7492492,209.061789 C95.7492492,209.061789 96.971648,210.788939 99.2942059,213.749768 C100.516605,215.230182 101.983483,216.957332 103.817082,218.80785 C105.89516,221.028471 107.973238,223.002357 110.295796,224.976243 C112.985073,227.320232 115.796591,229.417486 118.730348,231.391371 C122.030825,233.611993 125.453542,235.585879 128.998498,237.313029 C132.787935,239.163547 136.821851,240.767329 140.855767,242.124375 C145.134163,243.481422 149.412559,244.468365 153.813195,245.208572 C156.013513,245.578675 158.336071,245.825411 160.658629,246.072147 L163.836866,246.318882 L165.425985,246.44225 L167.259583,246.44225 C171.660219,246.44225 176.060855,246.195515 180.461491,245.578675 C187.918124,244.591732 195.252517,242.617847 202.34243,239.780386 C205.031708,243.481422 207.843225,247.05909 210.776982,250.51339 C210.654743,250.636758 210.532503,250.636758 210.410263,250.760125 L206.865306,252.980747 L206.376347,253.227483 L206.254107,253.35085 C205.642907,253.597586 206.987546,252.980747 206.865306,253.104115 L206.743066,253.104115 L206.498586,253.227483 C206.131867,253.35085 205.765147,253.597586 205.398427,253.720954 L203.198109,254.831265 L201.975711,255.448104 L201.364511,255.818208 L201.120031,255.941575 L200.997792,255.941575 C200.875552,255.941575 201.731231,255.571472 201.364511,255.818208 L201.242271,255.941575 C200.386592,256.311679 199.530913,256.681783 198.675234,257.051886 C197.819554,257.42199 196.841635,257.792093 195.985956,258.285565 L195.619237,258.408933 C196.230436,258.162197 195.741476,258.408933 195.863716,258.285565 L195.741476,258.285565 L195.619237,258.408933 L194.885797,258.655668 L193.418919,259.272508 C180.094771,264.453958 165.792704,266.921315 151.368398,266.427844 L149.534799,266.304476 L147.456721,266.181108 L143.178325,265.811004 C140.611288,265.440901 137.92201,265.194165 135.232733,264.577326 C124.597862,262.60344 114.329712,259.14914 104.672761,254.091058 C102.350203,252.857379 100.149885,251.6237 97.9495671,250.390022 C95.7492492,249.156343 93.793411,247.675929 91.7153329,246.318882 C88.0481363,243.728157 84.3809397,240.890697 81.0804628,237.929868 C78.1467055,235.339143 75.457428,232.62505 72.8903904,229.787589 C70.4455926,227.320232 68.7342342,224.852875 67.1451157,222.878989 C65.5559972,220.905103 64.5780781,219.301321 63.7223989,218.19101 L62.5,216.46386 C62.5,216.46386 62.8667197,217.0807 63.4779191,218.19101 C64.2113584,219.301321 65.0670376,221.151839 66.4116764,223.249093 C67.7563151,225.346346 69.3454337,227.937071 71.5457516,230.774532 C73.8683095,233.982096 76.4353471,237.066293 79.0023847,239.903754 C82.1806217,243.358054 85.4810987,246.688986 89.0260554,249.649815 C90.9818936,251.253597 92.9377318,252.980747 95.0158098,254.461161 C97.0938879,256.064943 99.2942059,257.668726 101.616764,259.14914 C106.384119,262.233336 111.273715,264.947429 116.40779,267.414786 C121.786345,269.882144 127.28714,271.979397 132.910175,273.583179 C135.721692,274.446754 138.777689,275.063594 141.711447,275.803801 L145.867603,276.544008 L147.945681,276.914112 L150.268239,277.284215 C156.013513,278.024422 161.758788,278.394526 167.504063,278.394526 C177.894453,278.271158 188.162603,276.790744 198.186274,274.076651 L199.653153,273.706547 L200.386592,273.459812 L201.486751,273.089708 C202.46467,272.719604 203.442589,272.472869 204.298268,272.102765 L206.987546,271.23919 L209.921303,270.128879 C210.776982,269.758776 211.510422,269.51204 212.243861,269.265304 C212.610581,269.141936 212.9773,269.018569 213.34402,268.771833 L213.5885,268.648465 L213.71074,268.648465 L214.444179,268.278361 L214.566419,268.154994 L215.055378,267.908258 L218.722575,266.05774 C220.678413,265.070797 222.145292,264.33059 223.367691,263.837118 C226.545928,266.921315 229.724165,269.882144 233.146882,272.596237 C233.146882,272.596237 249.160307,289.250898 257.961579,282.465665 C266.273891,276.050537 256.73918,255.818208 256.73918,255.818208 C244.026232,219.301321 219.944974,187.225678 188.162603,164.772727 Z" id="Shape"></path>
                <path d="M134.904706,141.372662 C117.436892,136.221619 99.3583159,133.705993 81.2797397,133.825785 C81.7683498,124.122657 84.2114007,114.659113 88.3645871,105.914319 L88.9753498,104.716402 L89.7082651,103.278902 L91.1740956,100.523693 C92.1513159,98.8466092 93.0063837,97.1695255 94.2279091,95.6122334 C98.6254007,89.02369 104.000113,83.1538968 110.10774,78.1226455 C112.917248,75.7268116 115.971062,73.570561 119.147028,71.6538938 C121.956536,69.8570184 125.01035,68.2997263 128.064163,66.8622259 C130.629367,65.6643089 133.316723,64.5861837 136.004079,63.6278501 C138.447129,62.6695165 140.645875,62.1903497 142.356011,61.7111829 C145.898435,60.872641 148.09718,60.3934742 148.09718,60.3934742 C148.09718,60.3934742 146.020587,60.5132659 142.233858,60.9924327 C140.40157,61.2320161 138.080672,61.4715995 135.515468,62.070558 C132.583807,62.6695165 129.774299,63.3882667 126.96479,64.2268086 C123.666672,65.3049338 120.368553,66.5028508 117.070435,67.9403512 C113.405858,69.4976433 109.985587,71.4143104 106.687468,73.4507693 C103.022892,75.7268116 99.602621,78.1226455 96.3045024,80.8778546 C92.8842312,83.7528553 89.7082651,86.7476478 86.7766041,90.1018153 C85.3107736,91.6591074 83.8449431,93.5757745 82.3791125,95.37265 L80.5468244,97.8882757 L79.6917566,99.2059843 L78.7145363,100.643485 C76.393638,104.237236 74.1948922,108.07057 72.4847566,112.023696 C69.186638,119.091406 66.8657397,126.638283 65.6442143,134.304952 L65.6442143,134.664327 C61.2467227,135.023702 56.8492312,135.62266 52.4517397,136.341411 C52.4517397,135.62266 52.4517397,134.90391 52.4517397,134.065368 C52.4517397,132.867451 52.4517397,131.549743 52.4517397,129.992451 L52.4517397,129.393492 L52.4517397,129.2737 C52.5738922,128.674742 52.3295871,130.112242 52.3295871,129.992451 L52.3295871,129.872659 L52.3295871,129.633076 C52.3295871,129.2737 52.4517397,128.914325 52.4517397,128.435159 C52.5738922,127.596617 52.5738922,126.877867 52.6960448,126.039325 C52.6960448,125.560158 52.8181973,125.200783 52.8181973,124.721616 L52.8181973,124.122657 L52.8181973,123.763282 L52.8181973,123.643491 C52.8181973,123.523699 52.6960448,124.482033 52.6960448,124.002866 L52.6960448,123.883074 C52.8181973,123.044532 52.9403499,122.086199 53.0625024,121.127865 C53.1846549,120.169531 53.3068075,119.211198 53.5511126,118.252864 L53.5511126,117.893489 C53.42896,118.492448 53.5511126,118.013281 53.42896,118.133073 L53.42896,118.013281 L53.42896,117.773698 L53.5511126,117.054947 L53.7954177,115.497655 C56.8492312,101.72161 62.3460956,88.5445232 70.2860109,76.9247285 L71.3853837,75.3674365 L72.6069092,73.6903527 L75.1721126,70.3361852 C76.8822481,68.419518 78.4702312,66.2632674 80.4246719,64.3466003 C87.6316719,56.5601399 96.0601973,49.7320131 105.34379,44.3413867 C107.542536,43.023678 109.741282,41.8257611 112.06218,40.7476358 C114.260926,39.5497188 116.581824,38.5913852 118.658418,37.6330516 C122.811604,35.8361762 127.086943,34.3986758 131.362282,33.0809671 C135.026858,32.0028418 138.813587,31.1643 142.600316,30.4455498 C146.020587,29.7267996 148.952248,29.4872162 151.395299,29.1278411 C153.83835,28.8882577 155.79279,28.768466 157.136468,28.6486743 L159.090909,28.6486743 L157.014316,28.5288826 C155.670638,28.5288826 153.716197,28.4090909 151.273146,28.4090909 C148.830096,28.5288826 145.776282,28.4090909 142.233858,28.768466 C138.324977,29.1278411 134.416096,29.6070079 130.629367,30.3257581 C125.98757,31.1643 121.467926,32.2424252 117.070435,33.6799256 C114.749536,34.3986758 112.306485,35.2372177 109.863435,36.1955513 C107.420384,37.0340932 104.977333,38.1122184 102.534282,39.3101354 C97.4038752,41.7059694 92.5177736,44.3413867 87.7538244,47.3361792 C82.8677227,50.4507633 78.2259261,54.0445142 73.8284346,57.8778486 C71.6296888,59.674724 69.4309431,61.9507663 67.3543498,63.9872252 L64.5448414,67.1018093 L63.0790109,68.6591014 L61.6131804,70.4559769 C57.9486041,74.768478 54.5283329,79.4403542 51.5966719,84.2320221 C46.22196,92.8570244 41.9466211,102.200777 39.01496,111.903904 L38.5263499,113.341405 L38.2820448,114.060155 L38.0377397,115.13828 C37.7934346,116.096614 37.5491295,117.054947 37.3048244,118.013281 C37.0605194,118.971614 36.8162143,119.810156 36.5719092,120.76849 C36.3276041,121.846615 36.2054516,122.804949 35.9611465,123.763282 C35.8389939,124.601824 35.5946889,125.440366 35.4725363,126.159116 C35.3503838,126.518491 35.3503838,126.877867 35.2282312,127.357033 L35.2282312,127.596617 L35.2282312,127.716408 L35.1060787,128.435159 L35.1060787,128.55495 L35.1060787,129.153909 C34.9839261,130.591409 34.8617736,131.909118 34.6174685,133.226827 C34.2510109,136.940369 34.0067058,139.336203 33.8845533,140.414328 C29.6092143,141.492454 25.3338753,142.810162 21.1806889,144.247663 C21.1806889,144.247663 -1.17322637,149.398706 0.0482990544,160.179959 C1.26982448,170.362253 23.2572821,172.398712 23.2572821,172.398712 C61.2467227,180.06538 100.701994,175.872671 136.126231,160.419542 C134.293943,154.190374 133.805333,147.721622 134.904706,141.372662 Z" id="Shape"></path>
                <path d="M289.385127,132.931348 C288.891124,127.065346 287.903117,121.321552 286.544607,115.577759 C285.927102,112.644758 284.939095,109.833965 284.19809,106.900964 L282.83958,102.868088 L282.098575,100.912754 L281.234068,98.713003 C279.134553,93.3358345 276.541035,88.2030828 273.577013,83.1925395 C268.389976,74.2713282 261.967929,65.9611588 254.557876,58.6286564 L253.446368,57.528781 L252.952364,56.9177392 L252.087858,56.1844889 C251.346853,55.4512387 250.605847,54.8401968 249.864842,54.1069466 C249.123836,53.4959047 248.382831,52.7626545 247.765327,52.1516126 C246.90082,51.4183624 246.159815,50.8073205 245.295309,50.1962786 L243.319295,48.6075698 L242.331287,47.8743195 L242.084286,47.6299028 L241.466781,47.1410693 L241.34328,47.0188609 L240.849277,46.6522358 C239.614268,45.7967772 238.50276,45.0635269 237.391252,44.3302767 C235.415237,42.9859846 233.933227,41.8861092 232.821719,41.152859 C234.056728,36.5089408 235.044735,31.7428142 235.78574,26.9766876 C237.020749,19.7663936 242.084286,4.856972 231.710211,0.579678921 C221.95364,-3.45319741 209.233048,14.8780586 209.233048,14.8780586 C183.668364,44.3302767 168.230752,80.9927888 164.772727,119.610635 C171.194774,120.954927 177.369818,123.76572 182.556856,127.798596 L182.680357,127.798596 C195.400948,115.333342 206.269027,101.15717 214.914089,85.7589154 C223.188649,90.891667 230.475202,97.4909192 236.279744,105.312255 L237.14425,106.412131 L238.008756,107.756423 L239.737769,110.445007 C240.725776,112.155924 241.837284,113.744633 242.70179,115.577759 C246.530318,122.665844 249.247337,130.242763 250.852849,138.064099 C251.593854,141.73035 252.087858,145.396602 252.33486,149.185061 C252.581861,152.606896 252.581861,155.906522 252.33486,159.328356 C252.211359,162.139149 251.840856,165.07215 251.346853,167.882942 C250.97635,170.449318 250.482346,172.649069 249.988343,174.482195 C249.000336,178.026237 248.382831,180.10378 248.382831,180.10378 C248.382831,180.10378 249.247337,178.148446 250.729348,174.726611 C251.346853,173.015694 252.211359,170.815943 252.952364,168.249568 C253.81687,165.438775 254.557876,162.505774 255.051879,159.694981 C255.669384,156.273147 256.163387,152.729104 256.410389,149.185061 C256.657391,145.274393 256.657391,141.241517 256.410389,137.330849 C256.163387,133.053556 255.545883,128.776263 254.681377,124.621178 C253.69337,120.221677 252.458361,115.944384 250.97635,111.789299 C250.235345,109.711757 249.247337,107.512006 248.25933,105.434464 L246.90082,102.623671 L246.159815,101.15717 L245.789312,99.5684616 C243.689797,95.6577936 241.219779,91.9915424 238.50276,88.4474996 C233.809726,82.2148725 228.252186,76.7154957 222.077141,71.8271608 C223.929655,67.6720761 225.782168,63.394783 227.264179,58.9952815 L228.005184,59.3619066 L231.710211,61.3172406 L232.204214,61.5616574 L232.327715,61.6838657 C232.821719,62.0504909 231.58671,61.1950323 231.710211,61.3172406 L231.957213,61.439449 L232.94522,62.0504909 L235.044735,63.394783 L236.156243,64.1280332 L236.773747,64.4946583 L237.020749,64.7390751 L237.14425,64.7390751 C237.267751,64.8612835 236.526746,64.2502416 236.773747,64.4946583 L236.897248,64.6168667 C237.638254,65.2279086 238.379259,65.7167421 239.243765,66.3277839 L241.713783,68.1609096 L242.084286,68.4053263 C241.590282,68.0387012 241.960785,68.2831179 241.837284,68.1609096 L241.960785,68.1609096 L242.084286,68.2831179 L242.70179,68.7719514 L243.936799,69.7496184 C255.17538,78.9152464 264.314446,90.1584168 270.983494,102.868088 L271.848001,104.579005 L272.712507,106.534339 L274.56502,110.322798 C275.553027,112.766966 276.664535,115.211133 277.405541,117.777509 C280.987067,127.920804 283.086582,138.675141 283.457084,149.429478 C283.580585,151.995854 283.580585,154.56223 283.580585,157.128606 C283.580585,159.694981 283.333584,162.139149 283.210083,164.461108 C282.83958,168.982818 282.098575,173.382319 281.110568,177.904029 C280.246061,181.692489 279.258054,185.35874 278.023045,189.024991 C277.035038,192.324617 275.800029,195.13541 274.935523,197.457369 C273.947516,199.779328 273.08301,201.490245 272.589006,202.712329 C271.971502,203.934413 271.7245,204.545455 271.7245,204.545455 C271.7245,204.545455 272.095002,203.934413 272.836008,202.834537 C273.453512,201.734662 274.56502,200.023745 275.800029,197.823994 C276.911537,195.624243 278.393548,192.935659 279.752058,189.758241 C281.357569,186.214198 282.83958,182.547947 283.951088,178.759488 C285.433099,174.359986 286.544607,169.838276 287.532614,165.194358 C288.026617,162.750191 288.520621,160.183815 288.767623,157.617439 C289.138126,155.051063 289.385127,152.362479 289.508628,149.673895 C289.879131,144.174518 289.879131,138.552933 289.385127,132.931348 Z" id="Shape"></path>
            </g>
        </g>
    </g>
</svg>